<svg width="313" height="303" viewBox="0 0 313 303" fill="none" xmlns="http://www.w3.org/2000/svg">
<rect x="0.5" y="0.5" width="312" height="302" rx="4.5" stroke="#9747FF" stroke-dasharray="10 5"/>
<path d="M233.568 274.576C233.568 140.434 161.5 70.0004 22 70.0004V99.0004C142.5 100.5 201.756 160.435 201.756 274.576L233.568 274.576Z" fill="white"/>
<path d="M233.568 274.576C233.568 140.434 161.5 70.0004 22 70.0004V99.0004C142.5 100.5 201.756 160.435 201.756 274.576L233.568 274.576Z" fill="white"/>
<path d="M22 11.8105V40.0004C181 40.0004 263.068 130.434 263.186 274.576L293.568 274.577C292.568 109.935 201.188 11.8105 22 11.8105Z" fill="white"/>
<path d="M22 11.8105V40.0004C181 40.0004 263.068 130.434 263.186 274.576L293.568 274.577C292.568 109.935 201.188 11.8105 22 11.8105Z" fill="white"/>
<path d="M173.068 274.576C173.068 179.934 121.5 130.397 22 130.397V160.5C101 160.5 143.068 199.435 143.068 274.576V274.578L82.9809 274.577L21 274.577L173.068 274.576Z" fill="white"/>
<path d="M173.068 274.576C173.068 179.934 121.5 130.397 22 130.397V160.5C101 160.5 143.068 199.435 143.068 274.576V274.578L82.9809 274.577L21 274.577L173.068 274.576Z" fill="white"/>
<path fill-rule="evenodd" clip-rule="evenodd" d="M22 191C82.4125 191 113.068 220.435 113.068 274.576V274.577L82.9809 274.577V274.576L52.627 274.663L52.6269 274.577L21 274.577L22 191ZM52.6269 233.643C70.6077 233.643 82.9809 240.935 82.9809 274.576L52.6269 274.576V233.643Z" fill="white"/>
<path fill-rule="evenodd" clip-rule="evenodd" d="M22 191C82.4125 191 113.068 220.435 113.068 274.576V274.577L82.9809 274.577V274.576L52.627 274.663L52.6269 274.577L21 274.577L22 191ZM52.6269 233.643C70.6077 233.643 82.9809 240.935 82.9809 274.576L52.6269 274.576V233.643Z" fill="white"/>
<path d="M185.905 85.333L209.586 108.223L185.927 132.641L162.275 109.779L185.905 85.333Z" fill="white"/>
</svg>
