<svg width="272" height="263" viewBox="0 0 272 263" fill="none" xmlns="http://www.w3.org/2000/svg">
<path d="M150.5 262.141C150.5 167.5 99.5005 118 0.000471115 118V148C79.0005 148 120.5 187 120.5 262.141V262.143L150.5 262.141Z" fill="white"/>
<path d="M92.087 262.867C92.087 208.725 60.413 179.434 0 179.434V262.434H31.646V221.933C49.626 221.933 62 229.226 62 262.867L92.087 262.868V262.867Z" fill="white"/>
<path d="M1.00046 58V87C116.5 87 182 149 180.001 262.5H212C208.93 182.315 195.554 157.427 167.001 118L186.501 97.5C227.5 144 238.726 186.158 241.501 262.5H272C269.001 96 184 2 0.500471 0V28C84.5559 32.8711 113 40.5 160.5 73.5L142.001 96C102.828 71.0487 76.2576 60.2745 1.00046 58Z" fill="white"/>
</svg>
