<svg width="273" height="263" viewBox="0 0 273 263" fill="none" xmlns="http://www.w3.org/2000/svg">
<rect width="273" height="263" fill="#1E1E1E"/>
<path d="M212.568 262.576C212.568 128.434 141.068 57.9339 1.56836 57.9339V86.9339C122.068 88.4336 180.756 148.434 180.756 262.575L212.568 262.576Z" fill="white"/>
<path d="M212.568 262.576C212.568 128.434 141.068 57.9339 1.56836 57.9339V86.9339C122.068 88.4336 180.756 148.434 180.756 262.575L212.568 262.576Z" fill="white"/>
<path d="M1.56836 0V27.9341C160.568 27.9341 242.068 118.434 242.186 262.576L272.568 262.577C271.568 97.935 180.756 0 1.56836 0Z" fill="white"/>
<path d="M1.56836 0V27.9341C160.568 27.9341 242.068 118.434 242.186 262.576L272.568 262.577C271.568 97.935 180.756 0 1.56836 0Z" fill="white"/>
<path d="M152.068 262.575C152.068 167.933 101.068 118.434 1.56836 118.434V148.434C80.5684 148.434 122.068 187.434 122.068 262.575V262.577L61.9809 262.576L0 262.577L152.068 262.575Z" fill="white"/>
<path d="M152.068 262.575C152.068 167.933 101.068 118.434 1.56836 118.434V148.434C80.5684 148.434 122.068 187.434 122.068 262.575V262.577L61.9809 262.576L0 262.577L152.068 262.575Z" fill="white"/>
<path fill-rule="evenodd" clip-rule="evenodd" d="M1.56836 178.934C61.9809 178.934 92.0684 208.434 92.0684 262.576V262.577L61.9809 262.576V262.575L31.627 262.663L31.6269 262.577L0 262.577L1.56836 178.934ZM31.6269 221.642C49.6077 221.642 61.9809 228.934 61.9809 262.575L31.6269 262.575V221.642Z" fill="white"/>
<path fill-rule="evenodd" clip-rule="evenodd" d="M1.56836 178.934C61.9809 178.934 92.0684 208.434 92.0684 262.576V262.577L61.9809 262.576V262.575L31.627 262.663L31.6269 262.577L0 262.577L1.56836 178.934ZM31.6269 221.642C49.6077 221.642 61.9809 228.934 61.9809 262.575L31.6269 262.575V221.642Z" fill="white"/>
<path d="M164.905 73.333L188.586 96.2231L164.927 120.641L141.275 97.7793L164.905 73.333Z" fill="white"/>
</svg>
